<svg width="55" height="55" viewBox="0 0 55 55" fill="none" xmlns="http://www.w3.org/2000/svg">
<g clipPath="url(#clip0_17_43484)">
<path fillRule="evenodd" clipRule="evenodd" d="M27.5 0C42.6889 0 55 12.3111 55 27.5C55 42.6889 42.6889 55 27.5 55C12.3111 55 0 42.6889 0 27.5C0 12.3111 12.3111 0 27.5 0Z" fill="#F0B90B"/>
<path d="M15.114 27.5L15.1338 34.7716L21.3125 38.4075V42.6647L11.5178 36.9201V25.3736L15.114 27.5ZM15.114 20.2284V24.4658L11.5156 22.3371V18.0998L15.114 15.9712L18.73 18.0998L15.114 20.2284ZM23.8928 18.0998L27.4912 15.9712L31.1072 18.0998L27.4912 20.2284L23.8928 18.0998Z" fill="white"/>
<path d="M17.7141 33.2644V29.0072L21.3125 31.1358V35.3732L17.7141 33.2644ZM23.8928 39.9323L27.4912 42.0609L31.1071 39.9323V44.1697L27.4912 46.2983L23.8928 44.1697V39.9323ZM36.2678 18.0998L39.8662 15.9712L43.4821 18.0998V22.3371L39.8662 24.4658V20.2284L36.2678 18.0998ZM39.8662 34.7716L39.886 27.5L43.4843 25.3714V36.9179L33.6897 42.6625V38.4053L39.8662 34.7716Z" fill="white"/>
<path d="M37.2859 33.2644L33.6875 35.3732V31.1358L37.2859 29.0072V33.2644Z" fill="white"/>
<path d="M37.2858 21.7356L37.3057 25.9928L31.1093 29.6286V36.9179L27.511 39.0266L23.9126 36.9179V29.6286L17.7163 25.9928V21.7356L21.3301 19.607L27.489 23.2604L33.6853 19.607L37.3013 21.7356H37.2858ZM17.7141 14.4661L27.4912 8.70172L37.2858 14.4661L33.6875 16.5948L27.4912 12.9413L21.3125 16.5948L17.7141 14.4661Z" fill="white"/>
</g>
<defs>
<clipPath id="clip0_17_43484">
<rect width="55" height="55" fill="white"/>
</clipPath>
</defs>
</svg>
