<svg width="55" height="55" viewBox="0 0 55 55" fill="none" xmlns="http://www.w3.org/2000/svg">
<path fillRule="evenodd" clipRule="evenodd" d="M27.5 0C42.6889 0 55 12.3111 55 27.5C55 42.6889 42.6889 55 27.5 55C12.3111 55 0 42.6889 0 27.5C0 12.3111 12.3111 0 27.5 0Z" fill="#E6EFFA"/>
<g clipPath="url(#clip0_17_43495)">
<path d="M27.4963 9.82141L27.2388 10.6719V35.3494L27.4963 35.5992L39.2783 28.8282L27.4963 9.82141Z" fill="#343434"/>
<path d="M27.4964 9.82141L15.7141 28.8282L27.4964 35.5992V23.6214V9.82141Z" fill="#8C8C8C"/>
<path d="M27.4965 37.768L27.3513 37.9401V46.7306L27.4965 47.1426L39.2856 31.0005L27.4965 37.768Z" fill="#3C3C3B"/>
<path d="M27.4964 47.1426V37.768L15.7141 31.0005L27.4964 47.1426Z" fill="#8C8C8C"/>
<path d="M27.4963 35.5992L39.2783 28.8282L27.4963 23.6215V35.5992Z" fill="#141414"/>
<path d="M15.7141 28.8282L27.4964 35.5992V23.6215L15.7141 28.8282Z" fill="#393939"/>
</g>
<defs>
<clipPath id="clip0_17_43495">
<rect width="23.5714" height="37.3214" fill="white" transform="translate(15.7141 9.82141)"/>
</clipPath>
</defs>
</svg>
